<svg width="28" height="28" viewBox="0 0 28 28" fill="none" xmlns="http://www.w3.org/2000/svg">
<path d="M23.8638 18.2548L22.5735 16.1012C22.1115 15.3312 21.8688 14.4503 21.8688 13.5531V10.4883C21.8688 6.15299 18.3385 2.625 13.9996 2.625C9.6608 2.625 6.13045 6.15182 6.13045 10.4883V13.5531C6.13045 14.4503 5.88661 15.3312 5.42578 16.1012L4.13546 18.2548C3.6863 19.0026 3.67579 19.9033 4.10513 20.6616C4.53563 21.4223 5.31378 21.8761 6.18761 21.8761H10.831C10.8216 21.9741 10.7925 22.0686 10.7925 22.1678C10.7925 23.9376 12.231 25.3761 14.0008 25.3761C15.7706 25.3761 17.2091 23.9376 17.2091 22.1678C17.2091 22.0686 17.18 21.9741 17.1706 21.8761H21.814C22.6878 21.8761 23.4671 21.4223 23.8964 20.6628C24.3246 19.9033 24.3129 19.0026 23.8638 18.2548ZM15.4568 22.1678C15.4568 22.9716 14.8023 23.6261 13.9985 23.6261C13.1946 23.6261 12.5401 22.9716 12.5401 22.1678C12.5401 22.0686 12.5588 21.9718 12.5786 21.8761H15.4183C15.4381 21.9718 15.4568 22.0686 15.4568 22.1678ZM22.3716 19.7994C22.3156 19.8974 22.1511 20.125 21.8116 20.125H6.18528C5.84695 20.125 5.68129 19.8974 5.62529 19.7994C5.57045 19.7014 5.45963 19.4436 5.63346 19.1543L6.9238 17.0007C7.54913 15.9589 7.87812 14.7664 7.87812 13.5531V10.4883C7.87812 7.11782 10.6233 4.375 13.9973 4.375C17.3713 4.375 20.1165 7.11782 20.1165 10.4883V13.5531C20.1165 14.7664 20.4466 15.9589 21.0708 17.0007L22.3611 19.1543C22.5361 19.4436 22.4265 19.7014 22.3716 19.7994Z" fill="#1B1B1B"/>
<circle cx="19" cy="5" r="3" fill="#F6CD24"/>
<circle cx="19" cy="5" r="2" fill="#FDA11A"/>
</svg>
