<svg width="210" height="210" viewBox="0 0 210 210" fill="none" xmlns="http://www.w3.org/2000/svg">
<path d="M65 29.4176C99.7461 5.81078 149.94 18.5878 168.264 56.1578M95 191.832C136.359 197.594 175 165.333 175 124.34V90.4167M65 180.301C46.8652 167.98 35 147.51 35 124.34V85.3787C35 75.0124 37.3751 65.1864 41.6241 56.3889" stroke="#FDA11A" stroke-width="15" stroke-linecap="round" stroke-linejoin="round"/>
<path d="M140 120.75C140 141.046 124.33 157.5 105 157.5C85.67 157.5 70 141.046 70 120.75V89.25C70 83.6136 71.2085 78.2736 73.3682 73.5M105 52.5C124.33 52.5 140 68.9535 140 89.25" stroke="#FDA11A" stroke-width="15" stroke-linecap="round" stroke-linejoin="round"/>
<path d="M105 91.875L105 118.125" stroke="#FDA11A" stroke-width="15" stroke-linecap="round" stroke-linejoin="round"/>
</svg>
