<svg width="329" height="198" viewBox="0 0 329 198" fill="none" xmlns="http://www.w3.org/2000/svg">
<path d="M164.276 167.059C182.01 160.605 183.726 120.591 168.11 77.6862C152.494 34.7814 125.459 5.23256 107.725 11.687C89.992 18.1414 88.2756 58.155 103.892 101.06C119.508 143.965 146.543 173.513 164.276 167.059Z" stroke="#FDA11A" stroke-width="20" stroke-linecap="round" stroke-linejoin="round"/>
<path d="M164.293 167.031C172.268 149.928 145.188 120.421 103.808 101.125C62.4271 81.8285 22.4163 80.051 14.4408 97.1544C6.46537 114.258 33.5455 143.765 74.926 163.061C116.306 182.357 156.317 184.135 164.293 167.031Z" stroke="#FDA11A" stroke-width="20" stroke-linecap="round" stroke-linejoin="round"/>
<path d="M224.629 101.074C240.245 58.1693 238.529 18.1558 220.795 11.7013C203.062 5.24688 176.027 34.7957 160.411 77.7005C144.795 120.605 146.511 160.619 164.244 167.073C181.978 173.528 209.013 143.979 224.629 101.074Z" stroke="#FDA11A" stroke-width="20" stroke-linecap="round" stroke-linejoin="round"/>
<path d="M253.614 163.028C294.995 143.732 322.075 114.224 314.099 97.1206C306.124 80.0172 266.113 81.7947 224.732 101.091C183.352 120.387 156.272 149.894 164.247 166.998C172.223 184.101 212.234 182.324 253.614 163.028Z" stroke="#FDA11A" stroke-width="20" stroke-linecap="round" stroke-linejoin="round"/>
</svg>
